<?xml version="1.0" standalone="no"?>
<!DOCTYPE svg PUBLIC "-//W3C//DTD SVG 20010904//EN"
 "http://www.w3.org/TR/2001/REC-SVG-20010904/DTD/svg10.dtd">
<svg version="1.0" xmlns="http://www.w3.org/2000/svg"
 width="500.000000pt" height="500.000000pt" viewBox="0 0 500.000000 500.000000"
 preserveAspectRatio="xMidYMid meet">

<g transform="translate(0.000000,500.000000) scale(0.100000,-0.100000)"
fill="#000000" stroke="none">
<path d="M2383 4883 l-91 -4 -11 -47 c-5 -26 -24 -129 -42 -229 -18 -101 -35
-183 -38 -183 -3 0 -21 26 -39 58 -31 52 -33 60 -23 93 6 20 11 47 11 61 0 47
-32 131 -60 160 -25 25 -36 28 -92 28 -38 0 -108 -12 -177 -30 -62 -17 -115
-30 -117 -30 -4 0 114 -451 120 -457 4 -4 144 24 153 31 1 1 -4 26 -12 56 -19
69 -19 67 5 73 17 4 26 -5 50 -53 l29 -58 88 24 c52 14 115 24 155 24 66 0 66
0 73 30 6 29 8 30 65 30 53 0 59 -2 62 -22 3 -22 7 -23 103 -24 55 0 126 -6
158 -13 32 -7 60 -11 62 -9 2 2 15 55 30 118 25 107 34 137 36 114 2 -31 -2
-166 -7 -201 -6 -42 -6 -42 32 -52 104 -26 96 -29 128 51 52 129 66 161 72
156 2 -3 -7 -58 -22 -123 -18 -84 -23 -120 -15 -124 6 -4 41 -13 76 -20 36 -7
65 -16 65 -20 0 -4 32 -22 70 -41 l70 -34 16 22 15 22 51 -27 c45 -24 49 -30
44 -55 -5 -25 0 -30 57 -62 34 -19 68 -36 75 -38 8 -2 44 -34 80 -72 144 -149
235 -166 320 -58 56 70 52 105 -26 216 -69 97 -37 97 68 -1 l61 -56 41 40 c49
49 47 54 -47 141 -108 102 -173 123 -243 80 -44 -27 -92 -102 -92 -144 0 -31
25 -76 81 -143 27 -33 30 -51 7 -51 -5 0 -44 33 -85 73 l-75 72 -30 -37 c-16
-21 -33 -38 -37 -38 -5 0 19 98 51 217 32 119 57 222 55 227 -3 6 -52 36 -110
66 -97 50 -107 54 -119 38 -55 -72 -284 -335 -286 -329 -1 4 20 103 46 221 34
148 46 217 38 221 -20 11 -225 53 -231 47 -3 -3 -21 -43 -40 -89 l-34 -84 -3
100 -3 100 -100 22 c-55 12 -107 23 -116 23 -12 0 -26 -48 -64 -220 -28 -120
-53 -216 -56 -212 -4 4 -30 97 -58 207 -29 110 -54 208 -57 218 -4 12 -14 16
-37 15 -18 -1 -73 -4 -124 -5z m56 -173 c6 -27 14 -68 17 -90 l7 -40 -38 0
-37 0 7 68 c13 126 26 145 44 62z m-482 -28 c6 -4 16 -19 22 -34 12 -32 -3
-55 -38 -60 -22 -3 -27 3 -37 40 -12 41 -12 43 9 52 28 11 30 11 44 2z m1623
-202 c0 -10 -48 -141 -54 -147 -6 -6 -56 20 -56 29 0 5 21 36 46 69 42 55 64
72 64 49z"/>
<path d="M1445 4643 c-82 -41 -152 -77 -154 -79 -5 -5 40 -104 51 -110 4 -3
26 5 48 16 l41 21 75 -156 c41 -85 77 -155 79 -155 16 0 135 66 135 75 0 6
-31 75 -70 154 -38 78 -70 146 -70 149 0 4 18 14 40 24 l39 16 -26 61 c-14 34
-29 61 -32 60 -3 0 -73 -34 -156 -76z"/>
<path d="M1128 4464 c-32 -25 -58 -50 -58 -56 0 -5 23 -39 51 -75 28 -35 49
-66 46 -69 -3 -3 -51 11 -106 32 l-100 37 -56 -43 c-31 -24 -58 -47 -61 -51
-2 -4 59 -90 137 -191 79 -101 144 -184 145 -186 3 -5 124 90 124 96 0 3 -25
39 -56 79 -31 41 -54 76 -51 80 4 3 50 -13 102 -36 53 -22 101 -41 107 -41 21
0 128 93 119 104 -4 6 -66 85 -136 176 -70 91 -133 170 -139 177 -8 8 -25 0
-68 -33z"/>
<path d="M2205 4190 c-147 -27 -239 -53 -367 -106 -856 -348 -1296 -1304
-1007 -2184 147 -448 476 -823 904 -1030 562 -272 1212 -229 1737 115 54 36
103 63 108 60 4 -3 161 -191 348 -418 350 -426 380 -456 477 -490 103 -36 241
-24 329 27 57 33 143 126 166 180 57 135 43 282 -38 400 -15 22 -218 196 -452
389 -234 192 -427 351 -429 353 -2 2 14 34 36 71 89 150 142 280 188 458 76
299 73 633 -11 923 -161 558 -590 1006 -1134 1186 -193 64 -280 78 -525 82
-188 3 -236 1 -330 -16z m605 -138 c969 -202 1536 -1164 1238 -2102 -145 -454
-499 -833 -944 -1009 -334 -132 -736 -149 -1073 -46 -86 27 -91 30 -103 64 -8
22 -13 84 -13 161 1 115 3 129 27 175 34 66 108 135 145 135 16 0 49 -7 74
-16 61 -22 92 -13 113 31 31 64 -6 118 -105 150 -71 24 -142 16 -223 -24 -143
-70 -226 -234 -226 -448 0 -51 -3 -93 -6 -93 -15 0 -130 76 -211 140 -227 176
-421 436 -517 691 -21 57 -23 67 -10 89 19 36 17 49 -11 60 -30 11 -33 36 -6
45 11 3 25 13 32 21 16 20 -3 39 -51 51 -34 9 -35 11 -46 74 -7 35 -12 92 -13
125 -1 61 -1 62 61 138 119 145 220 195 408 204 243 11 388 -48 507 -206 85
-113 103 -109 103 23 0 87 -23 302 -41 375 -12 53 -43 90 -76 90 -55 0 -158
-74 -226 -163 -27 -36 -68 -50 -81 -28 -11 17 -137 23 -222 10 l-85 -12 -62
64 c-87 89 -108 106 -162 130 -52 23 -51 19 -8 124 151 363 438 668 788 840
119 58 303 118 425 139 52 8 106 18 120 20 65 12 389 -4 480 -22z"/>
<path d="M2628 3949 c-10 -5 -18 -16 -18 -23 0 -7 43 -53 96 -101 53 -48 117
-119 144 -157 27 -38 59 -77 72 -87 33 -25 139 -65 254 -96 111 -30 117 -33
156 -94 57 -90 27 -196 -83 -295 -100 -90 -157 -113 -365 -152 -160 -29 -199
-40 -279 -78 -51 -24 -119 -62 -151 -83 -68 -46 -154 -135 -154 -158 0 -27 32
-30 74 -6 199 112 296 150 481 186 174 34 230 50 323 96 192 94 332 304 335
504 3 129 -19 146 -258 211 -228 61 -234 64 -319 165 -80 93 -140 141 -207
164 -48 17 -77 18 -101 4z"/>
<path d="M2190 3909 c-169 -25 -400 -125 -534 -230 -77 -61 -78 -62 -73 -101
19 -140 260 -389 443 -458 142 -53 267 9 325 159 28 72 36 260 20 449 -10 127
-20 168 -45 184 -13 9 -63 8 -136 -3z"/>
<path d="M2627 3619 c-43 -25 -40 -88 5 -136 28 -30 53 -29 83 2 34 33 35 107
3 129 -26 18 -65 20 -91 5z"/>
<path d="M2713 2619 c-81 -17 -113 -67 -113 -178 0 -89 29 -170 81 -225 33
-36 43 -41 82 -41 122 0 203 171 148 316 -36 96 -114 146 -198 128z"/>
<path d="M3175 2612 c-63 -21 -107 -81 -123 -172 -27 -144 64 -291 162 -266
39 10 89 58 121 117 41 76 48 189 14 248 -38 68 -104 95 -174 73z"/>
<path d="M1107 2342 c-30 -33 -26 -89 8 -126 30 -33 55 -33 94 0 43 36 39 95
-8 131 -24 18 -76 16 -94 -5z"/>
<path d="M1582 2344 c-35 -24 -44 -59 -28 -99 27 -64 79 -72 125 -20 35 40 37
54 16 94 -22 44 -71 55 -113 25z"/>
<path d="M2373 2285 c-93 -39 -121 -192 -58 -320 48 -100 123 -130 205 -84
115 65 112 254 -5 357 -55 49 -102 64 -142 47z"/>
<path d="M3505 2276 c-63 -28 -119 -117 -131 -209 -8 -56 18 -150 51 -183 32
-32 114 -34 163 -4 72 44 134 197 113 278 -15 55 -63 109 -109 122 -46 12 -50
12 -87 -4z"/>
<path d="M1835 2181 c-53 -5 -61 -9 -69 -33 -18 -50 2 -58 136 -58 146 0 209
20 192 63 -13 35 -95 44 -259 28z"/>
<path d="M1340 2171 c-27 -8 -30 -28 -15 -103 9 -44 -5 -68 -40 -68 -13 0 -33
-9 -46 -19 -23 -19 -23 -21 -9 -48 20 -37 68 -42 116 -14 45 27 50 26 90 -4
40 -31 93 -33 118 -6 27 30 16 52 -39 80 -55 28 -56 33 -40 127 7 40 6 42 -25
53 -36 12 -71 13 -110 2z"/>
<path d="M2910 2059 c-74 -27 -138 -75 -205 -156 -152 -183 -175 -306 -75
-397 51 -46 101 -53 211 -31 63 13 107 16 174 11 255 -19 247 -19 294 6 53 27
82 76 89 149 4 47 1 56 -59 156 -78 129 -146 201 -232 243 -82 40 -127 45
-197 19z"/>
<path d="M1782 2008 c-34 -34 -8 -62 110 -118 110 -52 131 -52 157 -2 30 56
-19 100 -134 121 -76 14 -118 14 -133 -1z"/>
<path d="M640 4014 c-95 -115 -111 -138 -99 -149 40 -38 342 -285 349 -285 5
0 58 60 119 133 l110 132 -27 23 c-70 59 -70 59 -105 16 -80 -97 -90 -106
-111 -91 -19 14 -18 17 29 72 l50 58 -45 38 c-25 22 -48 39 -51 39 -3 0 -26
-25 -50 -55 -24 -30 -47 -55 -50 -55 -4 0 -12 7 -19 15 -11 13 -3 27 49 89
l61 74 -49 41 -48 41 -113 -136z"/>
<path d="M4201 4040 c-55 -25 -160 -109 -196 -156 -19 -25 -30 -53 -33 -85 -6
-60 21 -109 106 -192 l59 -58 44 37 c24 20 45 37 47 39 2 2 -17 26 -41 53 -58
65 -64 84 -38 121 25 34 107 91 132 91 16 0 53 -36 95 -94 l21 -29 47 33 c25
18 46 38 46 44 0 16 -67 116 -102 153 -36 37 -85 63 -120 63 -12 0 -43 -9 -67
-20z"/>
<path d="M417 3708 c-21 -38 -37 -71 -35 -73 2 -1 66 -36 143 -78 77 -41 144
-82 149 -90 12 -19 -17 -67 -40 -67 -9 0 -81 34 -160 76 l-143 75 -36 -71
c-20 -40 -35 -73 -33 -75 20 -17 308 -159 334 -165 53 -12 98 5 139 52 87 102
112 224 59 287 -24 29 -50 45 -254 154 l-85 46 -38 -71z"/>
<path d="M4387 3676 c-184 -76 -234 -182 -156 -333 20 -38 50 -79 72 -97 35
-28 46 -31 105 -31 52 0 80 6 126 28 168 78 211 178 140 320 -66 133 -155 167
-287 113z m155 -153 c10 -9 18 -29 18 -45 0 -23 -9 -34 -47 -59 -56 -34 -115
-54 -137 -46 -9 4 -21 18 -28 32 -18 40 2 69 73 104 71 35 95 38 121 14z"/>
<path d="M202 3253 c-52 -124 -61 -212 -26 -260 47 -66 267 -137 352 -113 24
6 51 23 66 41 29 34 64 141 68 209 l3 44 -53 15 c-62 17 -63 16 -81 -64 -7
-29 -21 -61 -32 -71 -18 -16 -26 -17 -75 -6 -122 25 -137 45 -105 142 12 40
21 73 19 74 -5 5 -101 36 -109 36 -3 0 -16 -21 -27 -47z"/>
<path d="M4715 3255 c-42 -13 -42 -13 -29 -81 l6 -30 -159 -43 c-87 -24 -161
-45 -164 -47 -5 -3 28 -143 36 -152 2 -3 214 54 317 84 14 4 20 -5 29 -41 7
-26 16 -44 23 -42 6 2 35 10 64 18 29 7 51 18 49 23 -2 6 -23 82 -47 169 -48
174 -43 168 -125 142z"/>
<path d="M4430 2818 c0 -88 10 -115 41 -122 28 -5 29 -8 29 -61 0 -50 -2 -56
-25 -65 -28 -10 -27 -8 -10 -150 2 -19 -4 -69 -15 -110 -24 -92 -26 -199 -4
-241 30 -59 168 -91 222 -53 24 16 61 84 81 147 16 47 41 50 41 5 -1 -18 -7
-62 -15 -98 -7 -36 -11 -68 -7 -72 4 -3 31 -8 61 -10 l54 -3 19 70 c24 94 27
215 4 249 -26 41 -73 60 -148 61 -59 0 -71 -3 -93 -26 -14 -14 -38 -58 -53
-98 -45 -120 -67 -82 -34 58 l19 81 -36 5 c-83 14 -73 20 150 90 l221 70 -6
85 c-4 47 -9 103 -12 126 l-6 40 -221 28 c-122 15 -230 30 -239 33 -15 4 -18
-3 -18 -39z m369 -153 c2 -3 2 -8 -1 -11 -11 -11 -159 -45 -168 -39 -6 4 -10
20 -10 37 l0 31 87 -7 c48 -3 89 -9 92 -11z"/>
<path d="M88 2773 c-2 -43 -2 -80 -1 -82 2 -3 42 -7 88 -9 47 -3 88 -8 91 -13
2 -5 -40 -31 -95 -58 l-99 -50 -4 -78 c-2 -43 -3 -79 -3 -79 0 -3 468 -35 470
-32 1 2 6 37 10 80 l7 76 -96 7 c-53 4 -98 11 -101 15 -3 4 42 29 99 55 l103
48 7 75 c4 49 2 78 -4 82 -6 4 -102 12 -213 19 -111 7 -214 14 -229 17 l-26 5
-4 -78z"/>
<path d="M460 2341 c-39 -7 -39 -4 -25 -128 l8 -73 -26 0 c-24 0 -25 4 -32 71
l-7 71 -62 -7 c-33 -3 -62 -8 -63 -9 -1 -1 2 -31 8 -66 11 -72 8 -90 -19 -90
-16 0 -20 14 -31 92 -6 51 -13 94 -15 96 -2 2 -30 -1 -62 -5 -43 -6 -59 -13
-57 -23 1 -8 12 -88 24 -177 l22 -162 26 5 c14 2 118 18 230 34 113 17 206 32
209 34 2 3 -7 80 -20 173 -26 188 -21 180 -108 164z"/>
</g>
</svg>
